<?xml version="1.0" encoding="UTF-8"?>
<svg width="24px" height="24px" viewBox="0 0 24 24" version="1.1" xmlns="http://www.w3.org/2000/svg">
    <title>Google Keep Logo</title>
    <g stroke="none" stroke-width="1" fill="none" fill-rule="evenodd">
        <path d="M12,2 L4,6 L4,18 L12,22 L20,18 L20,6 L12,2 Z" fill="#F4B400"/>
        <path d="M12,2 L12,22 L20,18 L20,6 L12,2 Z" fill="#E37400"/>
        <path d="M9,11 L15,11 C15.5522847,11 16,11.4477153 16,12 C16,12.5522847 15.5522847,13 15,13 L9,13 C8.44771525,13 8,12.5522847 8,12 C8,11.4477153 8.44771525,11 9,11 Z M9,7 L15,7 C15.5522847,7 16,7.44771525 16,8 C16,8.55228475 15.5522847,9 15,9 L9,9 C8.44771525,9 8,8.55228475 8,8 C8,7.44771525 8.44771525,7 9,7 Z M9,15 L13,15 C13.5522847,15 14,15.4477153 14,16 C14,16.5522847 13.5522847,17 13,17 L9,17 C8.44771525,17 8,16.5522847 8,16 C8,15.4477153 8.44771525,15 9,15 Z" fill="#FFFFFF"/>
    </g>
</svg>
